<svg xmlns="http://www.w3.org/2000/svg" width="594.4254" height="126.4544" viewBox="0 0 594.4254 126.4544"><defs><style>.cls-1{fill-rule:evenodd;}</style></defs><title>FZ-TEXT-BLACK</title><g id="Laag_1" data-name="Laag 1"><path class="cls-1" d="M0,126.4544H24.4754V30.6092L0,53.1835Z"/><path class="cls-1" d="M0,46.6791,24.4754,23.5308H84.5221V0H24.4754L0,23.5308Z"/><path class="cls-1" d="M30.0233,59.1141V78.4362H84.5221L77.83,59.1141Z"/><path class="cls-1" d="M30.0233,53.1835,41.1152,30.6092H97.91l19.3141,47.827L99.8228,106.75h29.3218l-6.1218,19.7047H62.9163l28.11-48.0182L80.5087,53.1835Z"/></g><g id="Laag_4" data-name="Laag 4"><path d="M165.8576,126.4544v-67.34h45.9676V72.3324H182.1337v13.81h26.7649V99.3934H182.1337v27.061Z"/><path d="M226.1283,126.4544H208.6357l22.7209-67.34h21.6688l22.72,67.34H258.2532L242.4375,76.08h-.5263Zm-2.3345-26.502h36.5636v12.3627H223.7938Z"/><path d="M307.9029,126.4544h-24.891v-67.34H307.87a36.7891,36.7891,0,0,1,17.7394,4.0274,27.7992,27.7992,0,0,1,11.4921,11.5746q4.0446,7.5462,4.0446,18.035,0,10.523-4.0285,18.0852a27.6417,27.6417,0,0,1-11.4916,11.5907A36.8025,36.8025,0,0,1,307.9029,126.4544Zm-8.6149-13.8758h7.99a21.6647,21.6647,0,0,0,9.585-1.9233,12.6189,12.6189,0,0,0,5.9512-6.28q2.0223-4.3568,2.0223-11.6238T322.7981,81.16a12.688,12.688,0,0,0-6.0009-6.2473,22.22,22.22,0,0,0-9.7494-1.9232h-7.76Z"/><path d="M350.6131,126.4544v-67.34H366.89V86.1419h26.5352V59.1141h16.2434v67.34H393.4249V99.3934H366.89v27.061Z"/><path d="M419.86,126.4544v-67.34h16.2766V113.236H464.15v13.2184Z"/><path d="M513.3078,59.1141h16.2434v42.8918a23.1808,23.1808,0,0,1-3.584,12.9385,23.5066,23.5066,0,0,1-9.9962,8.5069,38.6835,38.6835,0,0,1-29.8881,0,22.5739,22.5739,0,0,1-13.5149-21.4454V59.1141h16.2766v41.495a12.2149,12.2149,0,0,0,1.5292,6.1372,10.8776,10.8776,0,0,0,4.2908,4.2212,14.2,14.2,0,0,0,12.8071,0,11.03,11.03,0,0,0,4.2909-4.2212,12.1116,12.1116,0,0,0,1.5452-6.1372Z"/><path d="M539.7435,126.4544v-67.34h27.818a29.28,29.28,0,0,1,13.0695,2.7124,19.7927,19.7927,0,0,1,8.5,7.76,23.0122,23.0122,0,0,1,2.992,11.9526,21.9679,21.9679,0,0,1-3.0573,11.8862,19.389,19.389,0,0,1-8.6812,7.4306,32.0365,32.0365,0,0,1-13.3169,2.5485H549.4762V90.5815h14.5665a17.0516,17.0516,0,0,0,6.1659-.97,7.6076,7.6076,0,0,0,3.764-2.96,9.2754,9.2754,0,0,0,1.2828-5.1122,9.62,9.62,0,0,0-1.2828-5.18,7.8408,7.8408,0,0,0-3.7811-3.09,16.0876,16.0876,0,0,0-6.1488-1.0355H556.02v54.2205Zm37.9127-30.7768,16.7692,30.7768H576.6689l-16.44-30.7768Z"/></g></svg>